<svg xmlns="http://www.w3.org/2000/svg"  viewBox="0 0 128 128" width="512px" height="512px"><path d="M 49 14.199219 C 43.9 14.199219 39.600781 17.300781 37.800781 21.800781 C 36.600781 21.400781 35.3 21.199219 34 21.199219 C 26.8 21.199219 21 26.999219 21 34.199219 L 21 34.300781 C 14.7 35.700781 9.9003906 41.3 9.9003906 48 C 9.9003906 50 10.299609 51.899219 11.099609 53.699219 C 7.2996094 57.099219 5 61.999219 5 67.199219 C 5 71.999219 6.9 76.399609 10 79.599609 L 10 87.199219 C 10 96.799219 17.500391 104.59922 26.900391 105.19922 C 29.900391 111.29922 36.1 115.19922 43 115.19922 C 52.9 115.19922 61 107.09922 61 97.199219 L 61 26.199219 C 61 19.599219 55.6 14.199219 49 14.199219 z M 79 14.199219 C 72.4 14.199219 67 19.599219 67 26.199219 L 67 97.199219 C 67 107.09922 75.1 115.19922 85 115.19922 C 91.9 115.19922 98.099609 111.19922 101.09961 105.19922 C 110.49961 104.59922 118 96.799219 118 87.199219 C 118 84.999219 117.60078 82.800781 116.80078 80.800781 C 120.70078 77.400781 123 72.499219 123 67.199219 C 123 61.999219 120.80039 57.099219 116.90039 53.699219 C 117.60039 51.999219 118 50.099219 118 48.199219 C 118 41.499219 113.3 35.9 107 34.5 L 107 34.199219 C 107 27.299219 101.60078 21.699219 94.800781 21.199219 L 94.400391 21.199219 L 94.199219 21.199219 L 94 21.199219 C 92.7 21.199219 91.399219 21.400781 90.199219 21.800781 C 88.399219 17.400781 84.1 14.199219 79 14.199219 z M 49 20.199219 C 52.3 20.199219 55 22.899219 55 26.199219 L 55 97.199219 C 55 103.79922 49.6 109.19922 43 109.19922 C 37.9 109.19922 33.399219 105.99922 31.699219 101.19922 C 31.299219 99.899219 30.099219 99.099219 28.699219 99.199219 L 28.400391 99.199219 L 28 99.199219 C 21.4 99.199219 16 93.799219 16 87.199219 L 16 83.800781 C 18.2 84.700781 20.5 85.199219 23 85.199219 C 32.9 85.199219 41 77.099219 41 67.199219 L 41 62.199219 C 41 60.499219 39.7 59.199219 38 59.199219 C 36.3 59.199219 35 60.499219 35 62.199219 L 35 67.199219 C 35 73.799219 29.6 79.199219 23 79.199219 C 16.4 79.199219 11 73.799219 11 67.199219 C 11 63.399219 12.9 59.799609 16 57.599609 L 20 57.599609 C 21.7 57.599609 23 56.299609 23 54.599609 C 23 52.899609 21.7 51.599609 20 51.599609 L 16.800781 51.599609 C 16.200781 50.499609 15.900391 49.3 15.900391 48 C 15.900391 44.1 18.700391 40.899609 22.400391 40.099609 C 24.600391 44.299609 28.9 47.199219 34 47.199219 C 35.7 47.199219 37 45.899219 37 44.199219 C 37 42.499219 35.7 41.199219 34 41.199219 C 30.9 41.199219 28.200781 39.100781 27.300781 36.300781 C 27.200781 36.000781 27.099609 35.700391 27.099609 35.400391 L 27.099609 35.199219 C 27.099609 34.899219 27 34.599219 27 34.199219 C 27 30.299219 30.1 27.199219 34 27.199219 C 35.5 27.199219 36.999219 27.699609 38.199219 28.599609 C 39.099219 29.299609 40.300781 29.400391 41.300781 28.900391 C 42.300781 28.400391 43 27.399219 43 26.199219 L 43 26.099609 C 43 22.799609 45.7 20.199219 49 20.199219 z M 79 20.199219 C 82 20.199219 84.500391 22.400781 84.900391 25.300781 C 82.700391 27.600781 81.400391 30.699219 81.400391 34.199219 C 81.400391 35.899219 82.700391 37.199219 84.400391 37.199219 C 86.100391 37.199219 87.400391 35.899219 87.400391 34.199219 C 87.400391 30.399219 90.399219 27.299219 94.199219 27.199219 C 97.999219 27.299219 101 30.399219 101 34.199219 C 101 34.899219 100.89922 35.600781 100.69922 36.300781 C 100.39922 37.200781 100.59922 38.3 101.19922 39 C 101.79922 39.8 102.69922 40.199219 103.69922 40.199219 L 104 40.199219 C 108.4 40.199219 112 43.799219 112 48.199219 C 112 49.399219 111.70078 50.5 111.30078 51.5 L 108 51.5 C 106.3 51.5 105 52.8 105 54.5 C 105 56.2 106.3 57.5 108 57.5 L 112 57.5 C 115.1 59.8 117 63.299219 117 67.199219 C 117 71.299219 114.90039 75.100781 111.40039 77.300781 C 110.10039 78.200781 109.60039 79.900781 110.40039 81.300781 C 111.40039 83.100781 112 85.099219 112 87.199219 C 112 93.799219 106.6 99.199219 100 99.199219 L 99.599609 99.199219 L 99.300781 99.199219 C 98.000781 99.099219 96.700781 99.899219 96.300781 101.19922 C 94.600781 105.99922 90.1 109.19922 85 109.19922 C 78.4 109.19922 73 103.79922 73 97.199219 L 73 26.199219 C 73 22.899219 75.7 20.199219 79 20.199219 z M 88.400391 64.199219 C 86.700391 64.199219 85.400391 65.499219 85.400391 67.199219 C 85.400391 77.099219 93.500391 85.199219 103.40039 85.199219 C 105.10039 85.199219 106.40039 83.899219 106.40039 82.199219 C 106.40039 80.499219 105.10039 79.199219 103.40039 79.199219 C 96.800391 79.199219 91.400391 73.799219 91.400391 67.199219 C 91.400391 65.499219 90.100391 64.199219 88.400391 64.199219 z"/></svg>