<svg xmlns="http://www.w3.org/2000/svg" xmlns:xlink="http://www.w3.org/1999/xlink" width="500" zoomAndPan="magnify" viewBox="0 0 375 374.999991" height="500" preserveAspectRatio="xMidYMid meet" version="1.0"><defs><clipPath id="15a6b4d20e"><path d="M 13.59375 7 L 361.59375 7 L 361.59375 375 L 13.59375 375 Z M 13.59375 7 " clip-rule="nonzero"/></clipPath><clipPath id="ca854a249e"><path d="M 13.59375 44.445312 L 13.59375 337.5 C 13.59375 358.210938 30.382812 375 51.09375 375 L 323.90625 375 C 344.617188 375 361.40625 358.210938 361.40625 337.5 L 361.40625 44.445312 C 361.40625 23.734375 344.617188 6.945312 323.90625 6.945312 L 51.09375 6.945312 C 30.382812 6.945312 13.59375 23.734375 13.59375 44.445312 Z M 13.59375 44.445312 " clip-rule="nonzero"/></clipPath><clipPath id="4ca2e67a24"><path d="M 182.125 229.367188 L 192.875 229.367188 L 192.875 240.121094 L 182.125 240.121094 Z M 182.125 229.367188 " clip-rule="nonzero"/></clipPath><clipPath id="b0df1f04c0"><path d="M 187.5 229.367188 C 184.53125 229.367188 182.125 231.773438 182.125 234.746094 C 182.125 237.714844 184.53125 240.121094 187.5 240.121094 C 190.46875 240.121094 192.875 237.714844 192.875 234.746094 C 192.875 231.773438 190.46875 229.367188 187.5 229.367188 Z M 187.5 229.367188 " clip-rule="nonzero"/></clipPath></defs><rect x="-37.5" width="450" fill="#ffffff" y="-37.499999" height="449.999989" fill-opacity="1"/><rect x="-37.5" width="450" fill="#ffffff" y="-37.499999" height="449.999989" fill-opacity="1"/><g clip-path="url(#15a6b4d20e)"><g clip-path="url(#ca854a249e)"><path fill="#000000" d="M 76.824219 102.828125 C 96.398438 118.535156 114.019531 126.714844 142.121094 136.753906 C 142.738281 136.972656 143.359375 136.433594 143.222656 135.792969 L 142.152344 130.722656 C 138.53125 121.796875 137.648438 111.8125 139.65625 102.246094 C 139.667969 102.1875 139.675781 102.136719 139.675781 102.082031 C 139.722656 97.035156 140.027344 92.050781 140.574219 87.132812 C 140.605469 86.820312 140.480469 86.539062 140.222656 86.355469 C 124.371094 75.128906 106.3125 67.492188 87.402344 63.976562 C 79.597656 62.527344 72.472656 60.542969 65.53125 57.820312 C 64.847656 57.554688 64.179688 58.222656 64.445312 58.90625 C 67.167969 65.847656 69.152344 72.976562 70.601562 80.78125 C 71.949219 88.015625 74.015625 95.53125 76.5625 102.464844 C 76.617188 102.613281 76.699219 102.730469 76.824219 102.828125 Z M 110.207031 216.238281 L 119.695312 215.875 C 120.332031 215.847656 120.710938 215.15625 120.382812 214.609375 C 105.242188 189.15625 91.109375 173.113281 68.699219 152.5 C 68.46875 152.289062 68.167969 152.222656 67.871094 152.320312 C 55.878906 156.265625 44.363281 161.964844 34.019531 169.070312 C 27.496094 173.542969 21.058594 177.183594 14.253906 180.15625 C 13.582031 180.449219 13.582031 181.398438 14.253906 181.691406 C 21.054688 184.660156 27.5 188.304688 34.019531 192.78125 C 56.320312 208.089844 82.636719 216.238281 110.175781 216.238281 C 110.1875 216.242188 110.195312 216.242188 110.207031 216.238281 Z M 142.332031 258.875 C 137.953125 248.238281 133.203125 238.027344 128.046875 228.273438 C 127.882812 227.960938 127.5625 227.792969 127.214844 227.832031 C 116.074219 229.105469 104.851562 229.128906 93.773438 227.902344 C 93.460938 227.867188 93.175781 227.996094 92.996094 228.25 C 81.757812 244.105469 74.113281 262.1875 70.601562 281.070312 C 69.152344 288.875 67.167969 296 64.445312 302.941406 C 64.175781 303.625 64.847656 304.296875 65.53125 304.027344 C 72.472656 301.304688 79.601562 299.320312 87.402344 297.871094 C 108.917969 293.871094 129.105469 284.648438 146.410156 270.824219 C 146.699219 270.59375 146.800781 270.21875 146.671875 269.875 C 145.265625 266.160156 143.820312 262.492188 142.332031 258.875 Z M 281.324219 227.902344 C 270.234375 229.128906 259.027344 229.105469 247.882812 227.832031 C 247.53125 227.792969 247.210938 227.960938 247.046875 228.273438 C 240.035156 241.539062 233.835938 255.550781 228.421875 269.875 C 228.292969 270.21875 228.394531 270.59375 228.683594 270.824219 C 245.992188 284.648438 266.179688 293.871094 287.691406 297.871094 C 295.488281 299.320312 302.625 301.308594 309.566406 304.027344 C 310.246094 304.296875 310.917969 303.625 310.652344 302.945312 C 307.925781 296.003906 305.941406 288.875 304.492188 281.070312 C 300.980469 262.1875 293.335938 244.105469 282.097656 228.25 C 281.917969 227.996094 281.632812 227.867188 281.324219 227.902344 Z M 306.394531 152.5 C 283.972656 173.128906 269.835938 189.175781 254.683594 214.65625 C 254.363281 215.191406 254.722656 215.875 255.34375 215.917969 C 285.957031 218.050781 316.085938 209.9375 341.078125 192.78125 C 347.589844 188.308594 354.042969 184.660156 360.84375 181.691406 C 361.515625 181.398438 361.515625 180.449219 360.84375 180.15625 C 354.042969 177.1875 347.59375 173.539062 341.078125 169.070312 C 330.734375 161.96875 319.214844 156.265625 307.226562 152.320312 C 306.929688 152.222656 306.625 152.289062 306.394531 152.5 Z M 234.734375 149.4375 C 258.246094 141.128906 274.183594 134.191406 288.703125 125.066406 C 304.230469 115.316406 315.207031 105.324219 333.359375 88.101562 L 333.371094 88.109375 C 336.34375 85.019531 342.105469 84.871094 345.523438 88.476562 L 345.515625 88.484375 C 348.59375 91.449219 348.730469 97.183594 345.238281 100.554688 C 317.746094 127.085938 284.78125 151.449219 261.933594 181.472656 C 220.613281 235.773438 199.816406 306.8125 188.375 374.320312 C 188.21875 375.246094 186.878906 375.246094 186.722656 374.320312 C 175.28125 306.8125 154.484375 235.769531 113.160156 181.472656 C 90.3125 151.449219 57.351562 127.085938 29.859375 100.554688 C 26.480469 97.296875 26.371094 91.886719 29.570312 88.476562 L 29.582031 88.484375 C 33.125 84.941406 38.328125 84.902344 41.734375 88.101562 L 41.726562 88.109375 L 42.164062 88.511719 C 76.9375 122.070312 94.164062 133.109375 140.359375 149.4375 C 149.109375 152.53125 158.386719 155.273438 167.121094 156.90625 C 167.191406 156.917969 167.25 156.9375 167.3125 156.96875 C 180.105469 162.792969 194.992188 162.792969 207.785156 156.96875 C 207.851562 156.9375 207.910156 156.917969 207.980469 156.90625 C 216.710938 155.273438 225.988281 152.53125 234.734375 149.4375 Z M 234.523438 87.132812 C 235.070312 92.050781 235.371094 97.039062 235.421875 102.082031 C 235.421875 102.140625 235.429688 102.1875 235.441406 102.246094 C 237.464844 111.808594 236.546875 121.808594 232.941406 130.730469 L 231.898438 135.773438 C 231.757812 136.417969 232.378906 136.964844 233 136.742188 C 261.132812 126.683594 278.722656 118.523438 298.273438 102.828125 C 298.882812 102.339844 301.300781 94.085938 301.703125 92.667969 C 302.832031 88.675781 303.765625 84.707031 304.492188 80.78125 C 305.945312 72.984375 307.929688 65.84375 310.652344 58.90625 C 310.921875 58.226562 310.25 57.554688 309.566406 57.820312 C 302.625 60.542969 295.496094 62.53125 287.691406 63.980469 C 268.785156 67.492188 250.726562 75.132812 234.875 86.359375 C 234.617188 86.539062 234.488281 86.820312 234.523438 87.132812 Z M 187.546875 76.011719 C 170.683594 76.011719 156.253906 87.554688 152.257812 103.519531 L 152.523438 112.703125 C 152.628906 114.3125 153.730469 125.894531 154.25 127.0625 C 164.484375 150.265625 195.078125 156.308594 213.273438 138.117188 C 216.425781 134.960938 219.003906 131.226562 220.835938 127.089844 L 221.269531 124.59375 C 222.3125 117.902344 222.855469 110.933594 222.863281 103.726562 C 222.863281 103.652344 222.855469 103.59375 222.839844 103.523438 C 218.84375 87.554688 204.410156 76.011719 187.546875 76.011719 Z M 175.691406 27.394531 C 166.191406 41.234375 159.339844 56.808594 155.585938 73.367188 C 155.410156 74.140625 156.308594 74.699219 156.925781 74.203125 C 174.789062 59.855469 200.304688 59.855469 218.167969 74.203125 C 218.785156 74.699219 219.683594 74.140625 219.507812 73.367188 C 215.753906 56.808594 208.902344 41.230469 199.402344 27.394531 C 194.933594 20.882812 191.285156 14.425781 188.316406 7.628906 C 188.023438 6.957031 187.074219 6.957031 186.78125 7.628906 C 183.808594 14.433594 180.167969 20.875 175.691406 27.394531 Z M 175.691406 27.394531 " fill-opacity="1" fill-rule="evenodd"/></g></g><g clip-path="url(#4ca2e67a24)"><g clip-path="url(#b0df1f04c0)"><path fill="#2e2e2e" d="M 182.125 229.367188 L 192.875 229.367188 L 192.875 240.121094 L 182.125 240.121094 Z M 182.125 229.367188 " fill-opacity="1" fill-rule="nonzero"/></g></g></svg>